<?xml version="1.0" standalone="no"?>
<!DOCTYPE svg PUBLIC "-//W3C//DTD SVG 20010904//EN"
 "http://www.w3.org/TR/2001/REC-SVG-20010904/DTD/svg10.dtd">
<svg version="1.0" xmlns="http://www.w3.org/2000/svg"
 width="512.000000pt" height="512.000000pt" viewBox="0 0 512.000000 512.000000"
 preserveAspectRatio="xMidYMid meet">
<metadata>
Created by potrace 1.16, written by Peter Selinger 2001-2019
</metadata>
<g transform="translate(0.000000,512.000000) scale(0.100000,-0.100000)"
fill="#000000" stroke="none">
<path d="M1329 3976 c-52 -26 -49 -109 4 -134 74 -36 144 61 85 115 -30 27
-61 33 -89 19z"/>
<path d="M2427 3977 c3 -6 -7 -8 -25 -5 -17 2 -29 1 -27 -3 3 -4 -11 -10 -30
-13 -19 -4 -76 -28 -127 -53 -126 -63 -236 -171 -296 -291 -23 -46 -44 -98
-48 -117 -3 -19 -10 -35 -14 -35 -5 0 -6 -9 -3 -21 4 -12 0 -25 -8 -30 -11 -7
-15 -67 -17 -323 l-4 -315 -36 -7 c-49 -9 -98 -46 -122 -95 -20 -39 -21 -54
-18 -612 3 -571 3 -572 26 -629 27 -66 96 -148 156 -183 23 -13 111 -43 196
-65 85 -23 220 -59 299 -81 169 -46 214 -48 342 -14 51 14 183 48 293 76 216
54 252 67 309 106 37 26 97 101 97 121 0 6 -21 22 -46 37 l-46 27 -28 -30
c-15 -16 -41 -37 -57 -46 -17 -8 -165 -49 -329 -91 -240 -61 -309 -76 -349
-72 -67 7 -509 131 -562 158 -23 11 -54 39 -70 62 l-28 40 -5 464 -5 465 -31
26 c-18 15 -44 37 -58 49 -20 17 -26 31 -26 63 0 47 19 99 44 119 16 14 16 15
-5 27 -21 11 -22 12 -3 20 11 5 348 7 766 4 l747 -5 23 -22 c21 -22 22 -26 19
-250 l-2 -228 30 -18 31 -18 0 -109 0 -109 -29 -15 c-37 -19 -41 -32 -41 -122
l0 -74 -33 0 c-65 0 -66 6 -69 296 -3 235 -4 257 -18 234 -22 -37 -28 -472 -7
-522 15 -36 65 -68 106 -68 19 0 21 -6 21 -59 0 -33 -4 -71 -10 -86 -9 -24 -6
-28 37 -55 59 -37 62 -33 70 90 5 79 3 93 -16 125 -16 28 -21 52 -21 109 0 78
6 90 51 101 39 10 49 44 49 171 0 116 0 116 -30 144 l-30 28 0 191 c0 140 -4
201 -14 225 -18 44 -79 92 -126 100 l-38 6 -4 312 c-4 286 -7 319 -27 386 -24
83 -61 160 -99 211 -14 19 -19 30 -11 26 20 -13 -118 115 -155 144 -55 41
-186 100 -260 115 -84 18 -258 27 -249 13z m288 -93 c53 -21 63 -39 51 -90 -6
-21 -9 -23 -27 -13 -94 50 -260 56 -384 15 -147 -50 -262 -145 -325 -271 -54
-109 -60 -152 -60 -451 0 -150 -3 -279 -6 -288 -3 -9 -15 -16 -25 -16 -18 0
-19 13 -19 318 0 348 3 373 61 492 46 93 170 214 272 265 109 54 163 65 297
61 83 -2 129 -8 165 -22z m-55 -155 c152 -35 285 -175 319 -337 7 -31 11 -169
11 -337 l0 -285 -450 0 -450 0 0 303 c0 375 7 409 115 526 116 127 271 171
455 130z m409 -736 c1 -143 -3 -223 -9 -223 -6 0 -9 105 -8 298 1 190 4 270 8
222 4 -41 8 -175 9 -297z m-1305 -645 c14 -19 16 -77 16 -431 0 -278 4 -423
12 -455 8 -33 26 -61 62 -98 57 -58 56 -58 406 -155 273 -75 259 -75 615 15
368 94 329 81 378 125 l41 36 -23 -33 c-33 -48 -80 -67 -294 -122 -105 -27
-235 -60 -287 -74 -149 -40 -183 -37 -502 49 -152 41 -291 81 -307 90 -46 23
-95 77 -122 131 l-24 49 -3 448 c-2 288 1 447 7 447 5 0 17 -10 25 -22z"/>
<path d="M3678 3963 c-37 -42 -28 -101 19 -122 37 -17 52 -14 85 19 24 25 29
36 23 58 -10 43 -34 62 -75 62 -23 0 -43 -7 -52 -17z"/>
<path d="M1413 2873 c-10 -4 -13 -88 -13 -374 0 -330 2 -370 16 -376 9 -3 20
0 24 7 10 16 1 732 -8 741 -4 4 -13 4 -19 2z"/>
<path d="M3647 2854 c-9 -9 -9 -696 -1 -718 3 -9 15 -16 25 -16 19 0 19 12 17
367 -3 323 -5 368 -18 371 -9 1 -19 0 -23 -4z"/>
<path d="M2406 2180 c-53 -34 -96 -110 -96 -170 1 -55 33 -115 79 -146 49 -32
50 -39 21 -186 -15 -80 -17 -104 -7 -110 18 -11 215 -10 222 2 3 5 -3 58 -15
117 -27 143 -26 154 9 174 79 45 114 156 73 235 -41 80 -97 114 -186 114 -41
0 -62 -7 -100 -30z"/>
<path d="M1305 1325 c-48 -48 -16 -125 51 -125 67 0 100 88 48 129 -35 28 -69
26 -99 -4z"/>
<path d="M3696 1329 c-56 -44 -21 -133 51 -127 70 6 93 79 41 128 -28 26 -58
25 -92 -1z"/>
<path d="M4030 1188 c0 -7 -13 -40 -29 -73 -33 -70 -103 -140 -176 -175 l-50
-25 -1215 0 c-1301 0 -1247 -2 -1324 50 -28 19 -36 21 -40 9 -7 -19 2 -41 20
-48 7 -3 11 -12 8 -21 -5 -11 9 -22 52 -43 l59 -27 1220 0 1220 0 58 29 c106
54 190 172 204 285 3 28 3 51 -1 51 -3 0 -6 -6 -6 -12z"/>
</g>
</svg>